<svg enable-background="new 0 0 255.566 49.091" height="49.091" viewBox="0 0 255.566 49.091" width="255.566" xmlns="http://www.w3.org/2000/svg"><g fill="#fff"><path d="m70.574 32.818 1.62 3.06c-1.26 1.035-2.97 1.665-4.635 1.665-3.6 0-6.12-2.609-6.12-6.345v-13.68h-3.51v-3.78h3.51v-6.39h4.365v6.39h5.49v3.78h-5.49v13.365c0 1.619 1.08 2.789 2.385 2.789.99 0 1.89-.359 2.385-.854zm9.045-14.625v-4.455h-4.455v23.264h4.455v-13.229c.405-4.05 3.825-6.705 8.64-6.705v-3.87c-4.005 0-7.155 1.935-8.64 4.995zm30.689 4.725v14.084h-4.365v-3.194c-1.71 2.43-4.905 3.734-7.74 3.734-4.95 0-8.595-2.88-8.595-7.425 0-4.635 4.185-7.74 9.314-7.74 2.295 0 4.77.495 7.02 1.26v-.72c0-2.925-1.35-6.03-5.985-6.03-2.295 0-4.545.9-6.57 1.935l-1.62-3.285c3.33-1.665 6.254-2.34 8.819-2.34 6.258.001 9.722 3.961 9.722 9.721zm-4.364 3.69c-1.89-.585-4.05-.899-6.345-.899-3.105 0-5.715 1.755-5.715 4.274s2.25 4.05 5.175 4.05c2.88 0 6.12-1.439 6.885-4.319zm20.834-13.41c-3.15 0-5.985 1.62-7.38 3.915v-3.375h-4.455v23.264h4.455v-15.074c.359-2.745 3.149-4.86 6.39-4.86 3.149 0 5.354 2.43 5.354 5.895v14.04h4.365v-14.805c.001-5.265-3.599-9-8.729-9zm22.635 10.125c-3.915-1.215-5.355-1.755-5.355-3.555 0-1.755 1.801-2.745 4.096-2.745 2.024 0 4.364.765 6.614 2.16l1.98-3.285c-2.521-1.665-5.58-2.7-8.595-2.7-4.95 0-8.505 2.79-8.46 7.065 0 3.78 2.655 5.31 8.01 6.795 2.88.81 5.265 1.485 5.265 3.645 0 1.8-1.8 3.016-4.41 3.016-2.744 0-5.399-1.035-7.874-2.835l-2.115 3.194c2.79 2.25 6.524 3.465 9.944 3.465 5.085 0 8.82-2.79 8.82-7.199 0-4.636-4.096-5.896-7.92-7.021zm22.319 10.349c-4.275 0-7.785-3.779-7.785-8.324 0-4.5 3.51-8.28 7.74-8.28 2.159 0 4.185.945 5.579 2.52l3.016-2.79c-2.205-2.205-5.22-3.6-8.55-3.6-6.66 0-12.285 5.535-12.285 12.15s5.625 12.194 12.24 12.194c3.465 0 6.479-1.439 8.729-3.734l-3.015-2.745c-1.439 1.62-3.509 2.609-5.669 2.609zm32.985-6.749h-18.314c.585 3.869 3.42 6.659 7.425 6.659 2.43 0 5.265-1.08 6.66-2.52l2.79 2.88c-2.07 2.205-6.12 3.6-9.405 3.6-6.479 0-11.97-5.085-11.97-12.239 0-6.975 5.175-12.105 11.61-12.105 7.109 0 11.204 5.4 11.204 13.725zm-4.32-3.555c-.495-3.6-2.7-6.21-6.705-6.21-3.6 0-6.524 2.43-7.245 6.21zm19.53-10.17c-3.149 0-5.984 1.62-7.38 3.915v-3.375h-4.454v23.264h4.454v-15.074c.36-2.745 3.15-4.86 6.39-4.86 3.15 0 5.355 2.43 5.355 5.895v14.04h4.364v-14.805c0-5.265-3.6-9-8.729-9zm35.639-7.649v31.454h-4.409v-4.05c-1.8 2.88-4.68 4.59-8.28 4.59-6.119 0-10.709-5.04-10.709-12.194 0-7.11 4.59-12.15 10.709-12.15 3.601 0 6.48 1.71 8.28 4.545v-12.195zm-4.409 19.799c0-4.86-3.016-8.28-7.2-8.28-4.274 0-7.289 3.42-7.289 8.28 0 4.859 3.015 8.324 7.289 8.324 4.184 0 7.2-3.465 7.2-8.324z"/><path d="m22.5 0-22.5 12.273v24.813l22.5 12.005 22.5-12.005v-24.68s-22.5-12.406-22.5-12.406zm-2.045 43.364-13.631-7.272 8.593-5.729c2.209-1.471-.135-4.825-2.543-3.222l-8.783 5.854v-16.161l16.364 8.924zm-14.047-29.925 14.046-7.662v9.053c0 2.706 4.091 2.708 4.091 0v-9.031l14.134 7.795-16.169 8.628zm18.137 12.334 16.364-8.732v15.955l-8.72-5.813c-2.416-1.606-4.752 1.749-2.547 3.22l8.534 5.688-13.631 7.274z"/></g></svg>